# Blender 5.0.1
# www.blender.org
mtllib habitacion.mtl
o habitacion
v -2.190088 11.892794 4.398215
v -2.190088 11.892794 -4.065567
v -1.342842 11.892794 4.398215
v -0.496464 11.892794 4.398215
v 1.196293 11.892794 -4.065567
v 0.349915 11.892794 -4.065567
v -0.496464 11.892794 -4.065567
v -1.342842 11.892794 -4.065567
v -0.496464 11.892794 0.725144
v -1.342842 11.892794 0.851597
v -0.496464 11.892794 2.874854
v -2.190088 11.892794 2.331104
v -1.342842 11.892794 2.179360
v -2.190088 11.892794 -0.741716
v -1.342842 11.892794 -0.640554
v 0.349915 11.892794 -0.906106
v -0.496464 11.892794 -0.716426
v 2.042671 11.892794 -0.526746
v 1.196293 11.892794 -0.526745
v 2.889050 11.892794 -0.589972
v 3.735428 11.892794 -0.729071
v 4.581806 11.892794 -0.956687
v 5.428184 11.892794 -0.767007
v 0.349915 11.892794 -2.676456
v 1.196293 11.892794 -2.524712
v -0.496464 11.892794 -2.929363
v -1.342842 11.892794 -2.853491
v -2.190088 15.445501 4.398215
v 6.273695 15.445501 4.398215
v -2.190088 15.445501 -4.065567
v 6.273695 15.445501 -4.065567
v 5.428184 11.892794 4.398215
v 6.273695 11.892794 4.398215
v 5.428184 11.892794 3.216167
v 5.428184 11.892794 1.522831
v 6.273695 11.892794 1.343551
v 3.735428 11.892794 4.398215
v 4.581806 11.892794 4.398215
v 4.581806 11.892794 2.973322
v 3.735428 11.892794 2.634593
v 3.735428 11.892794 1.033985
v 4.581806 11.892794 1.209125
v 2.042671 11.892794 4.398215
v 2.889050 11.892794 4.398215
v 2.889050 11.892794 2.533430
v 2.889050 11.892794 1.230958
v 2.042671 11.892794 2.533429
v 2.042671 11.892794 1.306830
v 0.349915 11.892794 4.398215
v 1.196293 11.892794 4.398215
v 0.349915 11.892794 3.001308
v 0.349915 11.892794 1.129795
v 1.196293 11.892794 2.659884
v 1.196293 11.892794 1.230958
v 6.273695 11.892794 -1.639538
v 6.273695 11.892794 -4.065567
v 5.428184 11.892794 -4.065567
v 5.428184 11.892794 -1.829217
v 4.581806 11.892794 -4.065567
v 3.735428 11.892794 -4.065567
v 3.735428 11.892794 -2.600585
v 4.581806 11.892794 -2.613230
v 2.889050 11.892794 -4.065567
v 2.042671 11.892794 -4.065567
v 2.042671 11.892794 -2.170643
v 2.889050 11.892794 -2.309741
v 5.498325 11.892794 -4.065567
v 5.490026 11.892794 1.509718
v 5.493735 11.892794 4.398215
v 5.490252 11.892794 -1.815293
v 6.273695 11.892794 -1.703647
v 5.490544 11.892794 -1.896757
v 5.490031 11.892794 1.431870
v 6.273695 11.892794 1.280613
v 5.428184 11.892794 3.151002
v 4.581806 11.892794 2.890150
v 3.735428 11.892794 1.095620
v 4.581806 11.892794 1.271225
v 3.735428 11.892794 2.562771
v 2.889050 11.892794 2.471864
v 3.794857 11.892794 1.046283
v 3.799305 11.892794 -2.601539
v 3.790450 11.892794 4.398215
v 3.788948 11.892794 1.106725
v 3.792357 11.892794 -4.065567
v 4.647696 11.892794 2.992228
v 4.646019 11.892794 -4.065567
v 4.655207 11.892794 -0.940238
v 4.646700 11.892794 2.910150
v 4.664742 11.892794 4.398215
v 3.735428 11.892794 -2.504080
v 4.581806 11.892794 -2.525289
v 3.799188 11.892794 -2.505677
v 5.428184 11.892794 -0.852638
v 4.654961 11.892794 -1.023830
v 3.735428 11.892794 -0.845281
v 2.889050 11.892794 -0.712780
v 2.042671 11.892794 -2.098764
v 2.889050 11.892794 -2.225799
v 2.962747 11.892794 2.479780
v 2.966833 11.892794 -4.065567
v 2.975940 11.892794 4.398215
v 2.963177 11.892794 2.542290
v 2.971117 11.892794 -0.603460
v 2.971450 11.892794 -0.725679
v 2.125107 11.892794 1.299441
v 2.131088 11.892794 -2.185173
v 2.134315 11.892794 -4.065567
v 2.130962 11.892794 -2.112016
v 2.145269 11.892794 4.398215
v 2.125219 11.892794 1.234007
v 2.889050 11.892794 1.136956
v 1.196293 11.892794 2.573557
v 2.042671 11.892794 2.428494
v 1.196293 11.892794 -0.439495
v 2.042671 11.892794 -0.410102
v 1.266670 11.892794 2.649369
v 1.280256 11.892794 -4.065567
v 1.269635 11.892794 -0.526745
v 0.814097 15.445501 4.398215
v 1.279572 11.892794 4.398215
v 1.269529 11.892794 -0.436952
v 1.266023 11.892794 2.561606
v 0.433304 11.892794 4.398215
v 0.444068 11.892794 -2.659575
v 0.448214 11.892794 -4.065567
v 0.443917 11.892794 1.141031
v -0.380348 11.892794 -4.065567
v -0.423602 11.892794 2.885740
v -0.418532 11.892794 4.398215
v -0.401055 11.892794 -0.737808
v -1.227010 11.892794 -4.065567
v -1.248830 11.892794 0.837552
v -1.234149 11.892794 4.398215
v -1.255948 11.892794 -2.861280
v -1.255777 11.892794 -2.772485
v -1.342842 11.892794 -2.767591
v -0.496464 11.892794 -2.815168
v 0.444003 11.892794 -1.022471
v -0.400551 11.892794 -0.818827
v 0.349915 11.892794 -0.999785
v -0.496464 11.892794 -0.795699
v 1.196293 11.892794 -2.635505
v 0.444486 11.892794 -2.801239
v 0.349915 11.892794 -2.822087
v 1.196293 11.892794 1.140133
v 0.349915 11.892794 1.034267
v 0.443921 11.892794 1.046025
v -0.496464 11.892794 0.626031
v -1.342842 11.892794 0.783311
v -1.248968 11.892794 0.765866
v -1.342842 11.892794 -0.788727
v -2.190088 11.892794 -0.862410
v -1.342842 11.892794 2.071223
v -2.190088 11.892794 2.210919
v -0.496464 11.892794 2.769727
v 0.349915 11.892794 2.891513
v -0.422946 11.892794 2.780306
v -2.190088 15.917665 4.398215
v -2.190088 12.170217 4.398215
v -2.190088 12.195553 -4.065567
v 6.273695 16.306889 4.398215
v 6.273695 12.200886 4.398215
v 6.273695 12.201147 -4.065567
v 6.273695 12.201142 -3.918937
v 6.273695 15.445501 -3.922809
v 6.158925 12.201024 -4.065567
v 6.123353 15.445501 -4.065567
v 6.273695 15.445501 4.256441
v 6.273695 12.200890 4.283479
v 6.164001 12.200488 4.398215
v 6.177193 15.445501 4.398215
v -2.027193 15.445501 4.398215
v -2.040623 12.170758 4.398215
v -2.190088 12.170510 4.299952
v -2.190088 15.445501 4.314489
v -2.190088 15.445501 -3.884285
v -2.190088 12.195074 -3.905593
v -2.062536 15.445501 -4.065567
v -2.012952 12.195670 -4.065567
v 6.124574 15.334144 -4.065567
v -2.190088 15.357260 -4.065567
v -2.060730 15.327104 -4.065567
v -2.190088 15.338913 -3.884984
v -2.190088 15.343457 4.314035
v -2.027588 15.349043 4.398215
v 6.273695 15.312946 4.257545
v 6.273695 15.336750 -3.922679
v 6.273695 15.323132 4.398215
v -2.190088 15.349551 4.398215
v 6.176697 15.323434 4.398215
vn 0.5774 0.5773 -0.5774
vn 0.5774 0.5774 0.5774
vn -0.0000 0.7071 -0.7071
vn -0.0000 0.7071 0.7071
vn -0.0000 1.0000 -0.0000
vn 0.7071 0.7071 -0.0000
vn 0.5774 -0.5774 -0.5774
vn -0.5774 -0.5774 -0.5774
vn 0.5774 -0.5774 0.5774
vn -0.5774 -0.5774 0.5774
vn -0.5774 0.5773 -0.5774
vn -0.7071 0.7071 -0.0000
vn -0.5774 0.5774 0.5774
vn -0.0000 -0.7071 -0.7071
vn -0.0000 -0.0000 -0.0000
vn 0.7071 -0.0000 -0.7071
vn 0.7071 -0.0000 0.7071
vn -0.7071 -0.0000 -0.7071
vn -0.7071 -0.0000 0.7071
vn -1.0000 -0.0000 -0.0000
vn -0.7071 -0.7071 -0.0000
vn -0.0000 -0.0000 1.0000
vn -0.0000 -0.7071 0.7071
vn -0.0000 -0.0000 -1.0000
vn 1.0000 -0.0000 -0.0000
vn 0.7071 -0.7071 -0.0000
vt 0.000000 0.500000
vt 0.000000 0.449949
vt 0.131079 0.449949
vt 0.122115 0.500000
vt 0.000000 0.443528
vt 0.210347 0.444395
vt 0.209517 0.449949
vt 0.137468 0.449949
vt 0.000000 0.399949
vt 0.000000 0.395345
vt 0.089350 0.395644
vt 0.089993 0.399949
vt 0.000000 0.299949
vt 0.000000 0.295029
vt 0.103314 0.295791
vt 0.102692 0.299949
vt 0.000000 0.199949
vt 0.000000 0.194816
vt 0.109639 0.195570
vt 0.110163 0.199949
vt 0.000000 0.099949
vt 0.000000 0.095049
vt 0.083059 0.096056
vt 0.084176 0.099949
vt 0.087908 0.096115
vt 0.089089 0.099949
vt 0.169864 0.049949
vt 0.170639 0.046295
vt 0.175238 0.046295
vt 0.367065 0.046282
vt 0.367887 0.049949
vt 0.310195 0.049949
vt 0.305137 0.049949
vt 0.198743 0.149949
vt 0.198016 0.146438
vt 0.407849 0.146182
vt 0.407755 0.149949
vt 0.309761 0.149949
vt 0.302896 0.149949
vt 0.182624 0.249949
vt 0.183061 0.245079
vt 0.186926 0.245072
vt 0.384593 0.244733
vt 0.383811 0.249949
vt 0.290943 0.249949
vt 0.284053 0.249949
vt 0.193083 0.349949
vt 0.192419 0.344395
vt 0.198031 0.344395
vt 0.198726 0.349949
vt 0.214582 0.444403
vt 0.213551 0.449949
vt 0.113332 0.195595
vt 0.113800 0.199949
vt 0.108498 0.295829
vt 0.107792 0.299949
vt 0.095578 0.395606
vt 0.096203 0.399949
vt 0.129215 0.500000
vt 0.303643 0.500000
vt 0.297666 0.449949
vt 0.306420 0.449949
vt 0.310773 0.500000
vt 0.302149 0.399949
vt 0.303412 0.394312
vt 0.308198 0.394283
vt 0.306832 0.399949
vt 0.290943 0.299949
vt 0.290943 0.295616
vt 0.500000 0.294989
vt 0.500000 0.299949
vt 0.415519 0.299949
vt 0.408974 0.299949
vt 0.294678 0.199949
vt 0.295475 0.195101
vt 0.302695 0.195081
vt 0.301933 0.199949
vt 0.316342 0.099949
vt 0.315370 0.095613
vt 0.320309 0.095627
vt 0.500000 0.096155
vt 0.500000 0.099949
vt 0.414203 0.099949
vt 0.409008 0.099949
vt 0.417938 0.349949
vt 0.416941 0.344387
vt 0.425309 0.344362
vt 0.426541 0.349949
vt 0.428396 0.449949
vt 0.428856 0.444815
vt 0.500000 0.443106
vt 0.500000 0.449949
vt 0.760764 0.377885
vt 0.760764 0.370785
vt 0.760764 0.196357
vt 0.760764 0.189227
vt 0.760764 0.000000
vt 0.778649 0.000000
vt 0.778621 0.009451
vt 0.777170 0.494195
vt 0.777153 0.500000
vt 0.760764 0.500000
vt 0.500000 1.000000
vt 0.500000 0.860469
vt 0.500000 0.856682
vt 0.500000 0.684173
vt 0.500000 0.680455
vt 0.500000 0.500000
vt 0.518201 0.500000
vt 0.518201 0.506778
vt 0.518216 0.991338
vt 0.518216 1.000000
vt 0.970641 0.850051
vt 0.970641 0.853414
vt 0.970641 0.900051
vt 0.970641 0.903845
vt 0.970641 0.950051
vt 0.970641 0.954195
vt 0.970641 1.000000
vt 0.952425 1.000000
vt 0.952432 0.993220
vt 0.952748 0.510464
vt 0.952755 0.500000
vt 0.970641 0.500000
vt 0.970641 0.550051
vt 0.970641 0.556894
vt 0.970641 0.600051
vt 0.970641 0.606911
vt 0.970641 0.650051
vt 0.970641 0.655858
vt 0.970641 0.700051
vt 0.970641 0.705011
vt 0.970641 0.750051
vt 0.970641 0.755465
vt 0.970641 0.800051
vt 0.970641 0.804646
vt 0.000000 0.500000
vt 0.004946 0.500000
vt 0.489291 0.500000
vt 0.500000 0.500000
vt 0.500000 0.507535
vt 0.500000 0.991119
vt 0.500000 1.000000
vt 0.491566 1.000000
vt 0.008375 1.000000
vt 0.000000 1.000000
vt 0.000000 0.994299
vt 0.000000 0.677473
vt 0.000000 0.509623
vt 0.000000 0.249949
vt 0.000000 0.243888
vt 0.116362 0.249949
vt 0.110163 0.249949
vt 0.356682 0.000000
vt 0.360469 0.000000
vt 0.371877 0.046265
vt 0.413456 0.149949
vt 0.413512 0.146175
vt 0.500000 0.146586
vt 0.500000 0.149949
vt 0.388057 0.249949
vt 0.388915 0.244726
vt 0.500000 0.244535
vt 0.500000 0.249949
vt 0.187106 0.299949
vt 0.000000 0.345022
vt 0.000000 0.149949
vt 0.000000 0.146698
vt 0.194446 0.146787
vt 0.195102 0.149949
vt 0.108429 0.149949
vt 0.104186 0.149949
vt 0.000000 0.049949
vt 0.000000 0.046076
vt 0.073679 0.049949
vt 0.069830 0.049949
vt 0.000000 0.000000
vt 0.180455 0.000000
vt 0.184173 0.000000
vt 0.500000 0.045805
vt 0.500000 0.049949
vt 0.500000 0.000000
vt 0.188396 0.099949
vt 0.184728 0.099949
vt 0.192660 0.199949
vt 0.187106 0.199949
vt 0.500000 0.195354
vt 0.500000 0.199949
vt 0.396274 0.199949
vt 0.391315 0.199949
vt 0.285639 0.295622
vt 0.285789 0.299949
vt 0.192472 0.299949
vt 0.767758 0.507642
vt 0.765977 0.500000
vt 0.320228 0.344390
vt 0.089009 0.349949
vt 0.082523 0.349949
vt 0.000000 0.349949
vt 0.500000 0.344142
vt 0.500000 0.393089
vt 0.318888 0.349949
vt 0.500000 0.349949
vt 0.313354 0.349949
vt 0.216988 0.399949
vt 0.432878 0.399949
vt 0.500000 0.399949
vt 0.423611 0.444805
vt 0.426132 0.399949
vt 0.423322 0.449949
vt 0.222843 0.399949
vt 0.500000 0.100051
vt 0.500000 0.056472
vt 0.500000 0.050051
vt 0.500000 -0.000000
vt 0.516389 -0.000000
vt 0.516421 0.008830
vt 0.518177 0.493520
vt 0.518201 0.500000
vt 0.500000 0.500000
vt 0.500000 0.453924
vt 0.500000 0.450051
vt 0.500000 0.404951
vt 0.500000 0.400051
vt 0.500000 0.353302
vt 0.500000 0.350051
vt 0.500000 0.305184
vt 0.500000 0.300051
vt 0.500000 0.256112
vt 0.500000 0.250051
vt 0.500000 0.204971
vt 0.500000 0.200051
vt 0.500000 0.154977
vt 0.500000 0.150051
vt 0.500000 0.104655
vt 0.703453 0.991559
vt 0.709877 0.991566
vt 0.709877 1.000000
vt 0.709877 0.494299
vt 0.702666 0.494270
vt 0.704179 0.009600
vt 0.709877 0.009623
vt 0.709877 0.177473
vt 0.970641 0.495054
vt 0.964613 0.495027
vt 0.964344 0.010668
vt 0.970641 0.010709
vt 0.702648 0.500000
vt 0.702046 0.508310
vt 0.709877 0.508375
vt 0.760764 0.991118
vt 0.767342 0.991191
vt 0.760764 1.000000
vt 0.702648 0.500000
vt 0.760764 0.500000
vt 0.709877 0.500000
vt 0.964973 0.500000
vt 0.704209 -0.000000
vt 0.737770 -0.000000
vt 0.709877 -0.000000
vt 0.965428 -0.000000
vt 0.970641 -0.000000
vt 0.760764 0.507535
vt 0.760764 0.500000
vt 0.970641 0.500000
vt 0.998534 0.500000
vt 0.709877 0.500000
vt 0.760764 0.500000
s 1
usemtl suelo1
f 1/1/1 3/2/3 13/3/5 12/4/6
f 53/16/5 113/56/5 54/165/5 127/48/5 124/166/3 50/13/3
f 68/28/5 69/174/3 33/177/11 36/178/12
f 70/30/5 73/29/5 74/179/12 55/154/12
f 72/156/5 71/155/12 56/182/13 67/180/4
f 85/159/4 82/158/5 62/83/5 59/82/4
f 84/169/5 83/168/3 38/21/3 39/24/5 76/26/5 78/184/5
f 88/79/5 89/25/5 75/175/5 35/27/5 23/33/5
f 86/23/5 90/22/3 32/173/3 34/176/5
f 87/81/4 95/80/5 94/32/5 58/31/5 57/181/4
f 92/84/5 93/36/5 81/35/5 42/183/5 22/78/5
f 103/19/5 102/18/3 37/167/3 40/172/5
f 101/187/4 105/76/5 96/38/5 91/37/5 61/157/5 60/160/4
f 104/75/5 100/53/5 79/171/5 77/170/5 41/34/5 21/39/5
f 109/43/5 111/42/5 112/185/5 20/74/5 97/77/5 99/190/5
f 106/41/5 110/151/3 44/17/3 45/20/5 80/54/5 46/186/5
f 108/163/4 107/162/5 66/189/5 63/188/4
f 122/191/5 123/55/5 114/152/5 48/40/5 116/46/5
f 117/15/5 121/14/3 43/150/3 47/153/5
f 118/70/4 119/69/5 18/45/5 98/44/5 65/161/5 64/164/4
f 125/86/5 139/196/5 148/49/5 146/193/5 115/192/5 19/68/5 25/73/5
f 126/200/4 144/87/5 143/72/5 5/71/4
f 128/201/4 140/66/5 141/202/5 24/85/5 145/88/5 6/203/4
f 129/11/5 130/10/3 49/199/3 51/198/5
f 131/65/5 158/57/5 157/197/5 52/47/5 147/50/5 16/204/5
f 133/6/5 134/5/3 4/9/3 11/12/5 156/58/5 9/205/5
f 132/91/4 135/90/5 26/206/5 7/207/4
f 138/209/5 136/208/5 151/51/5 149/211/5 17/64/5 142/67/5
f 153/63/6 152/62/5 137/210/5 27/89/5 8/92/4 2/108/2
f 155/59/6 154/8/5 10/7/5 150/52/5 15/61/5 14/60/6
usemtl suelo2
f 3/2/3 134/5/3 133/6/5 10/7/5 154/8/5 13/3/5
f 4/9/3 130/10/3 129/11/5 11/12/5
f 50/13/3 121/14/3 117/15/5 53/16/5
f 44/17/3 102/18/3 103/19/5 45/20/5
f 38/21/3 90/22/3 86/23/5 39/24/5
f 39/24/5 86/23/5 89/25/5 76/26/5
f 35/27/5 68/28/5 73/29/5 70/30/5 58/31/5 94/32/5 23/33/5
f 41/34/5 81/35/5 93/36/5 91/37/5 96/38/5 21/39/5
f 48/40/5 106/41/5 111/42/5 109/43/5 98/44/5 18/45/5 116/46/5
f 52/47/5 127/48/5 148/49/5 147/50/5
f 10/7/5 133/6/5 151/51/5 150/52/5
f 45/20/5 103/19/5 100/53/5 80/54/5
f 53/16/5 117/15/5 123/55/5 113/56/5
f 11/12/5 129/11/5 158/57/5 156/58/5
f 12/4/6 13/3/5 154/8/5 155/59/6
f 14/60/6 15/61/5 152/62/5 153/63/6
f 17/64/5 131/65/5 140/66/5 142/67/5
f 19/68/5 119/69/5 118/70/4 5/71/4 143/72/5 25/73/5
f 20/74/5 104/75/5 105/76/5 97/77/5
f 22/78/5 88/79/5 95/80/5 87/81/4 59/82/4 62/83/5 92/84/5
f 24/85/5 125/86/5 144/87/5 145/88/5
f 27/89/5 135/90/5 132/91/4 8/92/4
f 43/150/3 110/151/3 106/41/5 48/40/5 114/152/5 47/153/5
f 55/154/12 71/155/12 72/156/5 70/30/5
f 61/157/5 82/158/5 85/159/4 60/160/4
f 65/161/5 107/162/5 108/163/4 64/164/4
f 37/167/3 83/168/3 84/169/5 77/170/5 79/171/5 40/172/5
f 32/173/3 69/174/3 68/28/5 35/27/5 75/175/5 34/176/5
f 70/30/5 72/156/5 67/180/4 57/181/4 58/31/5
f 74/179/12 73/29/5 68/28/5 36/178/12
f 76/26/5 89/25/5 88/79/5 22/78/5 42/183/5 78/184/5
f 77/170/5 84/169/5 81/35/5 41/34/5
f 80/54/5 100/53/5 104/75/5 20/74/5 112/185/5 46/186/5
f 81/35/5 84/169/5 78/184/5 42/183/5
f 82/158/5 93/36/5 92/84/5 62/83/5
f 89/25/5 86/23/5 34/176/5 75/175/5
f 91/37/5 93/36/5 82/158/5 61/157/5
f 94/32/5 95/80/5 88/79/5 23/33/5
f 97/77/5 105/76/5 101/187/4 63/188/4 66/189/5 99/190/5
f 98/44/5 109/43/5 107/162/5 65/161/5
f 100/53/5 103/19/5 40/172/5 79/171/5
f 105/76/5 104/75/5 21/39/5 96/38/5
f 107/162/5 109/43/5 99/190/5 66/189/5
f 112/185/5 111/42/5 106/41/5 46/186/5
f 113/56/5 123/55/5 122/191/5 115/192/5 146/193/5 54/165/5
f 115/192/5 122/191/5 119/69/5 19/68/5
f 123/55/5 117/15/5 47/153/5 114/152/5
f 119/69/5 122/191/5 116/46/5 18/45/5
f 124/166/3 127/48/5 52/47/5 157/197/5 51/198/5 49/199/3
f 135/90/5 136/208/5 138/209/5 26/206/5
f 137/210/5 136/208/5 135/90/5 27/89/5
f 141/202/5 139/196/5 125/86/5 24/85/5
f 142/67/5 140/66/5 128/201/4 7/207/4 26/206/5 138/209/5
f 141/202/5 140/66/5 131/65/5 16/204/5
f 143/72/5 144/87/5 125/86/5 25/73/5
f 145/88/5 144/87/5 126/200/4 6/203/4
f 147/50/5 148/49/5 139/196/5 141/202/5 16/204/5
f 146/193/5 148/49/5 127/48/5 54/165/5
f 150/52/5 151/51/5 136/208/5 137/210/5 152/62/5 15/61/5
f 149/211/5 151/51/5 133/6/5 9/205/5
f 157/197/5 158/57/5 129/11/5 51/198/5
f 156/58/5 158/57/5 131/65/5 17/64/5 149/211/5 9/205/5
usemtl paredes1
f 184/246/25 185/245/25 175/100/25 178/99/25
f 181/252/22 183/194/22 180/122/22 167/121/22
f 187/249/20 188/236/20 165/111/20 170/110/20
f 186/241/24 191/240/24 171/218/24 174/217/24
usemtl paredes2
f 12/93/6 155/94/6 14/95/6 153/96/6 2/97/2 161/98/17 178/99/25 175/100/25 160/101/16 1/102/1
f 56/103/13 71/104/12 55/105/12 74/106/12 36/107/12 33/108/11 163/109/18 170/110/20 165/111/20 164/112/19
f 60/113/4 85/114/4 59/115/4 87/116/4 57/117/4 67/118/4 56/119/13 164/120/19 167/121/22 180/122/22 161/123/17 2/124/2 8/125/4 132/126/4 7/127/4 128/128/4 6/129/4 126/130/4 5/131/4 118/132/4 64/133/4 108/134/4 63/135/4 101/136/4
f 161/123/17 180/122/22 183/194/22 182/195/17
f 4/212/3 134/213/3 3/214/3 1/215/1 160/216/16 174/217/24 171/218/24 163/219/18 33/220/11 69/221/3 32/222/3 90/223/3 38/224/3 83/225/3 37/226/3 102/227/3 44/228/3 110/229/3 43/230/3 121/231/3 50/232/3 124/233/3 49/234/3 130/235/3
f 164/112/19 165/111/20 188/236/20 166/237/21 31/238/10
f 172/239/14 191/240/24 186/241/24 173/242/14 120/243/14
f 176/244/26 185/245/25 184/246/25 177/247/26
f 163/219/18 171/218/24 191/240/24 189/248/18
f 166/237/21 188/236/20 187/249/20 169/250/21
f 168/251/23 181/252/22 167/121/22 164/120/19 31/253/10
f 169/250/21 187/249/20 189/254/18 162/255/15 29/256/8
f 160/101/16 175/100/25 185/245/25 190/257/16
f 173/242/14 186/241/24 190/258/16 159/259/15 28/260/7
f 177/247/26 184/246/25 182/261/17 30/262/9
f 179/263/23 183/194/22 181/252/22 168/251/23
f 182/261/17 184/246/25 178/99/25 161/98/17
f 182/195/17 183/194/22 179/263/23 30/264/9
f 190/258/16 186/241/24 174/217/24 160/216/16
f 189/254/18 187/249/20 170/110/20 163/109/18
f 190/257/16 185/245/25 176/244/26 28/265/7 159/266/15
f 189/248/18 191/240/24 172/239/14 29/267/8 162/268/15
usemtl techo
f 28/137/7 176/138/26 177/139/26 30/140/9 179/141/23 168/142/23 31/143/10 166/144/21 169/145/21 29/146/8 172/147/14 120/148/14 173/149/14
